<svg width="58" height="38" viewBox="0 0 58 38" fill="none" xmlns="http://www.w3.org/2000/svg">
<g clip-path="url(#clip0_1_7753)">
<path d="M9.52205 38C6.97333 37.9368 4.55025 36.88 2.76995 35.055C0.989653 33.23 -0.00683594 30.7815 -0.00683594 28.232C-0.00683594 25.6825 0.989653 23.234 2.76995 21.409C4.55025 19.584 6.97333 18.5272 9.52205 18.464C10.1549 18.4636 10.7862 18.5276 11.4061 18.655C11.8058 16.0654 13.1125 13.7021 15.0929 11.9864C17.0734 10.2708 19.5989 9.31445 22.2191 9.288C22.5677 9.288 22.9124 9.30433 23.2531 9.337C24.2345 6.88881 25.9228 4.78838 28.1028 3.30356C30.2827 1.81873 32.8555 1.01679 35.4931 1C39.0586 1.04612 42.4598 2.50641 44.9488 5.05977C47.4378 7.61312 48.8109 11.0505 48.7661 14.616C48.7661 14.96 48.7537 15.3003 48.7291 15.637C51.4248 16.1262 53.8504 17.5797 55.5531 19.726C57.2558 21.8724 58.1193 24.5651 57.9824 27.3014C57.8455 30.0377 56.7176 32.6307 54.8091 34.5965C52.9007 36.5622 50.3421 37.7663 47.6111 37.984V38H9.52205Z" fill="#6172F3"/>
<path d="M45 0C46.9778 0 48.9112 0.58649 50.5557 1.6853C52.2002 2.78412 53.4819 4.3459 54.2388 6.17317C54.9957 8.00043 55.1937 10.0111 54.8079 11.9509C54.422 13.8907 53.4696 15.6725 52.0711 17.0711C50.6725 18.4696 48.8907 19.422 46.9509 19.8079C45.0111 20.1937 43.0004 19.9957 41.1732 19.2388C39.3459 18.4819 37.7841 17.2002 36.6853 15.5557C35.5865 13.9112 35 11.9778 35 10C35 7.34784 36.0536 4.8043 37.9289 2.92893C39.8043 1.05357 42.3478 0 45 0V0Z" fill="#9BA6FB"/>
<path d="M45.719 4.37915L39.897 11.3662H45.137L44.555 16.0242L50.377 9.03715H45.137L45.277 7.91915L45.719 4.37915Z" fill="white"/>
</g>
<defs>
<clipPath id="clip0_1_7753">
<rect width="58" height="38" fill="white"/>
</clipPath>
</defs>
</svg>
